<?xml version="1.0"?>
<svg version="1.1" xmlns="http://www.w3.org/2000/svg" xmlns:xlink="http://www.w3.org/1999/xlink" width="24" height="24">
    <desc iVinci="yes" version="4.6" gridStep="20" showGrid="no" snapToGrid="no" codePlatform="0"/>
    <g id="Layer1" name="Layer 1" opacity="1">
        <g id="Shape1">
            <desc shapeID="1" type="0" basicInfo-basicType="0" basicInfo-roundedRectRadius="12" basicInfo-polygonSides="6" basicInfo-starPoints="5" bounding="rect(-11.997,-10.4955,23.994,20.991)" text="" font-familyName="" font-pixelSize="20" font-bold="0" font-underline="0" font-alignment="1" strokeStyle="0" markerStart="0" markerEnd="0" shadowEnabled="0" shadowOffsetX="0" shadowOffsetY="2" shadowBlur="4" shadowOpacity="160" blurEnabled="0" blurRadius="4" transform="matrix(1,0,0,1,11.997,11.5045)" pers-center="0,0" pers-size="0,0" pers-start="0,0" pers-end="0,0" locked="0" mesh="" flag=""/>
            <path id="shapePath1" d="M23.244,17.009 L0.75,17.009 C0.337,17.009 0,17.369 0,17.81 L0,21.231 C0,21.654 0.337,22 0.75,22 L23.244,22 C23.658,22 23.994,21.654 23.994,21.23 L23.994,17.81 C23.994,17.369 23.658,17.009 23.244,17.009 M23.244,9.009 L0.75,9.009 C0.337,9.009 0,9.369 0,9.81 L0,13.231 C0,13.655 0.337,14 0.75,14 L23.244,14 C23.658,14 23.994,13.655 23.994,13.231 L23.994,9.81 C23.994,9.369 23.658,9.009 23.244,9.009 M23.244,1.009 L0.75,1.009 C0.337,1.009 0,1.369 0,1.81 L0,5.23 C0,5.653 0.337,5.999 0.75,5.999 L23.244,5.999 C23.658,5.999 23.994,5.653 23.994,5.23 L23.994,1.81 C23.994,1.369 23.658,1.009 23.244,1.009 Z" style="stroke:none;fill-rule:nonzero;fill:#ffffff;fill-opacity:1;"/>
        </g>
    </g>
</svg>
